<svg width="46" height="28" viewBox="0 0 46 28" fill="none" xmlns="http://www.w3.org/2000/svg">
<path d="M43.0597 13.1049C42.9153 13.0745 42.779 13.046 42.6577 13.0145C41.2832 12.657 40.6558 12.4611 40.1919 11.5655L38.4349 8.0082C37.8702 6.91808 36.4121 6.03114 35.1845 6.03114H32.0563V1.92336C32.0563 1.1858 31.4562 0.585693 30.7185 0.585693L8.93093 0.607573C8.21307 0.607573 7.67174 1.17805 7.67174 1.9346V3.14874H2.09034C0.937759 3.14884 0 4.0865 0 5.23918C0 6.39186 0.937759 7.32952 2.09034 7.32952H7.67164V9.33304H4.01737C2.86479 9.33304 1.92703 10.2708 1.92703 11.4234C1.92703 12.576 2.86479 13.5137 4.01737 13.5137H7.67164V15.5172H5.94441C4.79183 15.5172 3.85407 16.455 3.85407 17.6076C3.85407 18.7602 4.79183 19.6979 5.94441 19.6979H7.67164V21.7934C7.67164 22.531 8.27175 23.1311 9.00931 23.1311H11.2757C11.6286 25.5501 13.7165 27.414 16.2322 27.414C18.7481 27.414 20.8361 25.5501 21.1891 23.1311H30.3612C30.4089 23.1311 30.4577 23.1279 30.5064 23.1247C30.8567 25.5468 32.9459 27.414 35.4638 27.414C37.9797 27.414 40.0676 25.5501 40.4207 23.1311H43.676C44.9575 23.1311 46.0001 22.0886 46.0001 20.8072V16.864C46 13.7218 44.2305 13.3505 43.0597 13.1049ZM35.4638 20.5837C36.4683 20.5837 37.2855 21.4006 37.2855 22.4048C37.2855 23.409 36.4683 24.2259 35.4638 24.2259C34.4597 24.2259 33.6427 23.409 33.6427 22.4048C33.6427 21.4006 34.4597 20.5837 35.4638 20.5837ZM32.0563 12.8216V7.9712H34.4468C35.3656 7.9712 36.499 8.66062 36.9197 9.47237L38.4832 12.6379C38.5163 12.702 38.5507 12.763 38.5864 12.8215H32.0563V12.8216ZM18.0539 22.4047C18.0539 23.4088 17.2367 24.2258 16.2322 24.2258C15.2281 24.2258 14.4113 23.4089 14.4113 22.4047C14.4113 21.4005 15.2281 20.5836 16.2322 20.5836C17.2367 20.5837 18.0539 21.4006 18.0539 22.4047Z" fill="#F2994A"/>
</svg>
