<svg width="74" height="40" viewBox="0 0 74 40" fill="none" xmlns="http://www.w3.org/2000/svg">
<path d="M70.9365 1V7.62695L70.6885 7.91016L63.9141 15.626C66.3489 16.2687 68.3397 17.3891 69.8271 19.0283H69.8262C71.643 20.9968 72.5361 23.4439 72.5361 26.2998C72.5361 28.5183 71.9515 30.5829 70.7881 32.4736L70.7832 32.4814C69.595 34.3752 67.7984 35.8576 65.4619 36.9551L65.4609 36.9541C63.1251 38.0668 60.3037 38.5996 57.0361 38.5996C54.483 38.5996 51.964 38.2723 49.4814 37.6172L49.4736 37.6152L49.4658 37.6123C47.0083 36.9201 44.8806 35.9413 43.1025 34.6611L42.4072 34.1611L42.7949 33.3975L45.9453 27.1973L46.4844 26.1357L47.4365 26.8496C48.6714 27.7758 50.1013 28.5094 51.7354 29.0449C53.4058 29.5482 55.1055 29.7998 56.8369 29.7998C58.7549 29.7998 60.1353 29.4357 61.0801 28.8174C61.9638 28.2076 62.3867 27.4046 62.3867 26.2998C62.3867 25.1646 61.9791 24.4225 61.2002 23.9111C60.3479 23.3516 58.9424 23 56.8369 23H52.1367V16.2715L52.3867 15.9883L58.1182 9.5H44.4365V1H70.9365ZM13.8096 9.09961L14.1094 9.5127L19.0107 16.2617L24.0488 9.50293L24.3486 9.09961H35.167L33.9463 10.7051L24.4043 23.251L34.3477 36.3965L35.5605 38H24.1855L23.8867 37.582L18.7861 30.4502L13.5039 37.5947L13.2041 38H2.17773L3.40527 36.3926L13.2959 23.4434L3.75 10.6992L2.55176 9.09961H13.8096Z" stroke="#F2994A" stroke-width="2"/>
</svg>
