<svg width="46" height="30" viewBox="0 0 46 30" fill="none" xmlns="http://www.w3.org/2000/svg">
<path d="M11.4287 14.2121C11.4287 12.693 11.6836 11.1339 12.1815 9.55901C8.54912 8.18249 4.53417 8.01174 1.92188 8.09298L11.9683 18.1395C11.6107 16.8115 11.4287 15.4976 11.4287 14.2121Z" fill="#9B51E0"/>
<path d="M34.0325 18.1394L44.0791 8.09271C41.467 8.01156 37.4519 8.18231 33.8193 9.55882C34.3172 11.1338 34.5722 12.6928 34.5722 14.2119C34.5722 15.4974 34.3901 16.8114 34.0325 18.1394Z" fill="#9B51E0"/>
<path d="M0.0163485 10.0007C-0.103446 13.9131 0.341312 20.9714 4.54688 25.177C8.64461 29.2747 15.4197 29.8061 19.386 29.7196C18.6058 28.9639 0.0163485 10.0007 0.0163485 10.0007Z" fill="#9B51E0"/>
<path d="M45.984 10.0007C45.984 10.0007 27.3973 28.961 26.6182 29.716C30.5882 29.7988 37.3672 29.2633 41.4536 25.177C45.6589 20.9714 46.1038 13.9135 45.984 10.0007Z" fill="#9B51E0"/>
<path d="M31.8753 14.212C31.8753 8.24798 27.1987 2.94889 24.3477 0.272705V27.8235L27.7807 24.3904C29.9282 21.6197 31.8753 18.0496 31.8753 14.212Z" fill="#9B51E0"/>
<path d="M14.124 14.2121C14.124 18.0407 16.0515 21.5951 18.186 24.3578L21.6516 27.8234V0.277344C18.8004 2.95919 14.124 8.26466 14.124 14.2121Z" fill="#9B51E0"/>
</svg>
